<?xml version="1.0" encoding="utf-8"?>
<!-- Generator: Adobe Illustrator 24.1.0, SVG Export Plug-In . SVG Version: 6.00 Build 0)  -->
<svg version="1.1" id="katman_1" xmlns="http://www.w3.org/2000/svg" xmlns:xlink="http://www.w3.org/1999/xlink" x="0px" y="0px"
	 viewBox="0 0 219 324" style="enable-background:new 0 0 219 324;" xml:space="preserve">
<style type="text/css">
	.st0{fill:#1D285A;}
	.st1{fill:#CCC8C4;}
	.st2{fill-opacity:0;stroke:#000000;stroke-opacity:0;}
	.st3{fill:#20BEE8;}
	.st4{fill:#F4F2F1;}
	.st5{fill:#ECEAE8;}
	.st6{fill:#F7F5F4;}
</style>
<g>
	<g>
		<g>
			<g>
				<path id="e3AdiMWYag" class="st0" d="M158.7,44c0,20.5-16.1,37.1-36,37.1s-36-16.6-36-37.1s16.1-37.2,36-37.2
					S158.7,23.5,158.7,44z"/>
			</g>
		</g>
		<g>
			<g>
				<path id="dkWC0vR4P" class="st1" d="M98.7,121.1c0.1,1.3,1.2,12,1.3,13.3c0,0-1.2,0.7-3.3,1.6c-1-5.3-2.9-11-7.7-12
					C94.1,118.1,96.8,121.7,98.7,121.1z"/>
			</g>
			<g>
				<g>
					<path id="dkWC0vR4P_1_" class="st2" d="M98.7,121.1c0.1,1.3,1.2,12,1.3,13.3c0,0-1.2,0.7-3.3,1.6c-1-5.3-2.9-11-7.7-12
						C94.1,118.1,96.8,121.7,98.7,121.1z"/>
				</g>
			</g>
		</g>
		<g>
			<g>
				<path id="f33Qb67mS" class="st3" d="M42.8,233.7c-1.7,1.7-7.9,8.8-1.3,15.1c5.7,5.5,16.6-10.4,21.4-9.2
					c4.6,1.1,12.2,8.4-4.2,19.7c-2.8,2.4-25.2,21.5-28,23.9c0,0-11.6,10.7-6.8,17.8c4.8,7.1,17-2.4,17-2.4
					c2.9-2.5,17.2-15.1,43.1-37.7c4.7-3.4,7.2-5.3,7.8-5.7c0,0,6.8-3.9,10.7,2.5c3.8,6.4-7.8,14.6-7.8,14.6S71.9,287.6,74,294.5
					c2.1,6.9,9.8,5.7,15.1,1.4c5.3-4.3,86.4-72.3,86.4-72.3c-5.3-2.6-32-15.5-80.1-38.7C61.5,216.3,43.9,232.6,42.8,233.7z"/>
			</g>
			<g>
				<g>
					<path id="f33Qb67mS_1_" class="st2" d="M42.8,233.7c-1.7,1.7-7.9,8.8-1.3,15.1c5.7,5.5,16.6-10.4,21.4-9.2
						c4.6,1.1,12.2,8.4-4.2,19.7c-2.8,2.4-25.2,21.5-28,23.9c0,0-11.6,10.7-6.8,17.8c4.8,7.1,17-2.4,17-2.4
						c2.9-2.5,17.2-15.1,43.1-37.7c4.7-3.4,7.2-5.3,7.8-5.7c0,0,6.8-3.9,10.7,2.5c3.8,6.4-7.8,14.6-7.8,14.6S71.9,287.6,74,294.5
						c2.1,6.9,9.8,5.7,15.1,1.4c5.3-4.3,86.4-72.3,86.4-72.3c-5.3-2.6-32-15.5-80.1-38.7C61.5,216.3,43.9,232.6,42.8,233.7z"/>
				</g>
			</g>
		</g>
		<g>
			<g>
				<path id="blCpdKT1x" class="st4" d="M132,44.5c1.1-2.7,3.9-3.5,6.7-1.4c1.3,1,2.3,2.5,3.2,3.9c0.3,0.6,0.3,1.3,0,1.9
					c-1.2,2.1-4.4,7.1-7.3,8.3C131.6,58.3,129.4,50.8,132,44.5z"/>
			</g>
			<g>
				<g>
					<path id="blCpdKT1x_1_" class="st2" d="M132,44.5c1.1-2.7,3.9-3.5,6.7-1.4c1.3,1,2.3,2.5,3.2,3.9c0.3,0.6,0.3,1.3,0,1.9
						c-1.2,2.1-4.4,7.1-7.3,8.3C131.6,58.3,129.4,50.8,132,44.5z"/>
				</g>
			</g>
		</g>
		<g>
			<g>
				<path id="dJ19HPBFK" class="st4" d="M143.8,57.6c-0.7,0.7-1.5,1.1-2.1,1.4c-1.2,0.4-2.3-0.8-1.7-1.9c0.6-1.2,1.6-2.7,2.7-3.9
					c0.8-0.9,2.3-0.3,2.4,0.8C145,55.2,144.8,56.5,143.8,57.6z"/>
			</g>
			<g>
				<g>
					<path id="dJ19HPBFK_1_" class="st2" d="M143.8,57.6c-0.7,0.7-1.5,1.1-2.1,1.4c-1.2,0.4-2.3-0.8-1.7-1.9
						c0.6-1.2,1.6-2.7,2.7-3.9c0.8-0.9,2.3-0.3,2.4,0.8C145,55.2,144.8,56.5,143.8,57.6z"/>
				</g>
			</g>
		</g>
		<g>
			<g>
				<path id="aJoRmNPl9" class="st1" d="M36.3,35.8c11.9-7.2,26-8.4,42.7-6.2c1.6,0.2,2.7,1.7,2.6,3.3c-0.2,1.8-0.3,3.5-0.2,5.4l0,0
					c0,0-24.6-5-43,9.7c-18.3,14.5-9.5,25.1-9.4,25.2c-6.6,0.6-13.7-6.2-13.2-13.8C16.2,51.5,28.5,40.5,36.3,35.8z"/>
			</g>
			<g>
				<g>
					<path id="aJoRmNPl9_1_" class="st2" d="M36.3,35.8c11.9-7.2,26-8.4,42.7-6.2c1.6,0.2,2.7,1.7,2.6,3.3c-0.2,1.8-0.3,3.5-0.2,5.4
						l0,0c0,0-24.6-5-43,9.7c-18.3,14.5-9.5,25.1-9.4,25.2c-6.6,0.6-13.7-6.2-13.2-13.8C16.2,51.5,28.5,40.5,36.3,35.8z"/>
				</g>
			</g>
		</g>
		<g>
			<g>
				<path id="bPPWF0sTD" class="st4" d="M152.9,53.3c5.6,2.3,15.1,7,24.9,14.9c10.3,8.3,8.9,23.2,0.8,25.6c-2.5,0.8-5.1,0.4-7.8-0.7
					c0,0-5.6-13.9-21.5-23.9C151.8,64.3,153.1,58.6,152.9,53.3z"/>
			</g>
			<g>
				<g>
					<path id="bPPWF0sTD_1_" class="st2" d="M152.9,53.3c5.6,2.3,15.1,7,24.9,14.9c10.3,8.3,8.9,23.2,0.8,25.6
						c-2.5,0.8-5.1,0.4-7.8-0.7c0,0-5.6-13.9-21.5-23.9C151.8,64.3,153.1,58.6,152.9,53.3z"/>
				</g>
			</g>
		</g>
		<g>
			<g>
				<path id="d3k9T1Cp1" class="st1" d="M149.2,69.2c15.9,10,21.5,23.9,21.5,23.9c-6-2.3-12.8-8.1-21.5-12.5
					c-2.2-1.1-4.5-2.3-6.7-3.4C145.2,75.2,147.5,72.4,149.2,69.2z"/>
			</g>
			<g>
				<g>
					<path id="d3k9T1Cp1_1_" class="st2" d="M149.2,69.2c15.9,10,21.5,23.9,21.5,23.9c-6-2.3-12.8-8.1-21.5-12.5
						c-2.2-1.1-4.5-2.3-6.7-3.4C145.2,75.2,147.5,72.4,149.2,69.2z"/>
				</g>
			</g>
		</g>
		<g>
			<g>
				<path id="bkxbVbptx" class="st1" d="M119.6,108.4C133,113.6,145,139,145,139c0.2,0,1.2,0,2.9-0.1c-9.3,6.9-14.5,10.8-15.5,11.6
					c0,0-17.8-37.8-19.9-41.6C113.9,108.8,115.3,108,119.6,108.4z"/>
			</g>
			<g>
				<g>
					<path id="bkxbVbptx_1_" class="st2" d="M119.6,108.4C133,113.6,145,139,145,139c0.2,0,1.2,0,2.9-0.1
						c-9.3,6.9-14.5,10.8-15.5,11.6c0,0-17.8-37.8-19.9-41.6C113.9,108.8,115.3,108,119.6,108.4z"/>
				</g>
			</g>
		</g>
		<g>
			<g>
				<path id="blWzR1L5Y" class="st5" d="M148.7,132.4c0,0.4,0.1,2.3,0.1,5.8l-0.9,0.7c-1.7,0-2.7,0.1-2.9,0.1c0,0-12-25.3-25.4-30.5
					C126.9,109.2,138.6,113.6,148.7,132.4z"/>
			</g>
			<g>
				<g>
					<path id="blWzR1L5Y_1_" class="st2" d="M148.7,132.4c0,0.4,0.1,2.3,0.1,5.8l-0.9,0.7c-1.7,0-2.7,0.1-2.9,0.1
						c0,0-12-25.3-25.4-30.5C126.9,109.2,138.6,113.6,148.7,132.4z"/>
				</g>
			</g>
		</g>
		<g>
			<g>
				<path id="b2C84htA6j" class="st4" d="M69.8,119.7c-20.6,2.9-22.2-9.7-16.4-20.8s19.4-13.2,23.7-24.7c2.9-8-5.7-12.4-11.3-14.3
					c-1.1-0.6-2.5-1-4.5-1.3c-18.3-2.3-18.8,6.8-28.1,13.3c-1.3,0.9-2.7,1.4-4.2,1.5c-0.1-0.2-8.9-10.7,9.4-25.2
					c18.4-14.6,43-9.7,43-9.7l0,0c0.2,6.7,2.2,14.2,8.6,25.2c1.4,2.5,3.7-5.3,2.4-7.8c-3.9-7.3-5-15.7-3.8-23.8
					c3.3,0.7,7.2,1.8,11.4,3.2c-0.1,0.1-0.2,0.2-0.4,0.4c-3,4.1-4.1,9.7-4.6,14.6c-0.5,4.6-0.2,9.5,2.2,13.6c2.7,4.6,7.3,9,11.7,12
					c3.7,2.6,8.4,4,12.7,4.7c2,0.3,4.2,0.6,6.3,0.5c-5.8,7.1-13,11.5-16.7,13.4c-1.4,0.7-3,0.9-4.6,0.5c-8.4-2.2-18.5-1.6-28.1,2.4
					c-10.4,4.4-13.4,6.4,1.4,1.3c14.9-5.2,30.2-2.3,34.2,6.9s19.6,40.5,19.6,40.5c-1.4,1.4-12.2,12.9-13.6,14.3
					c0,0-13.5-26.8-17.7-37.5C98.1,112.3,90.5,116.7,69.8,119.7z"/>
			</g>
			<g>
				<g>
					<path id="b2C84htA6j_1_" class="st2" d="M69.8,119.7c-20.6,2.9-22.2-9.7-16.4-20.8s19.4-13.2,23.7-24.7
						c2.9-8-5.7-12.4-11.3-14.3c-1.1-0.6-2.5-1-4.5-1.3c-18.3-2.3-18.8,6.8-28.1,13.3c-1.3,0.9-2.7,1.4-4.2,1.5
						c-0.1-0.2-8.9-10.7,9.4-25.2c18.4-14.6,43-9.7,43-9.7l0,0c0.2,6.7,2.2,14.2,8.6,25.2c1.4,2.5,3.7-5.3,2.4-7.8
						c-3.9-7.3-5-15.7-3.8-23.8c3.3,0.7,7.2,1.8,11.4,3.2c-0.1,0.1-0.2,0.2-0.4,0.4c-3,4.1-4.1,9.7-4.6,14.6
						c-0.5,4.6-0.2,9.5,2.2,13.6c2.7,4.6,7.3,9,11.7,12c3.7,2.6,8.4,4,12.7,4.7c2,0.3,4.2,0.6,6.3,0.5c-5.8,7.1-13,11.5-16.7,13.4
						c-1.4,0.7-3,0.9-4.6,0.5c-8.4-2.2-18.5-1.6-28.1,2.4c-10.4,4.4-13.4,6.4,1.4,1.3c14.9-5.2,30.2-2.3,34.2,6.9
						s19.6,40.5,19.6,40.5c-1.4,1.4-12.2,12.9-13.6,14.3c0,0-13.5-26.8-17.7-37.5C98.1,112.3,90.5,116.7,69.8,119.7z"/>
				</g>
			</g>
		</g>
		<g>
			<g>
				<path id="d9Hcfpk7f" class="st1" d="M83.3,133.3c-6.8,4.1-19.4,5-24.4,3.6c-27.8-8.1-19.1-28.7-11.4-42.8
					c6.8-12.6,27-29.3,18.2-34.3c5.6,2,14.2,6.4,11.3,14.3c-4.2,11.6-17.9,13.6-23.7,24.7s-4.2,23.8,16.4,20.8
					c20.6-2.9,28.3-7.3,32.5,3.3c4.2,10.6,17.7,37.5,17.7,37.5c-1.2,1.3-10.9,11.5-12.1,12.8c0,0-11.7-25.2-13.3-37.3
					C93.3,126.2,89.6,129.5,83.3,133.3z"/>
			</g>
			<g>
				<g>
					<path id="d9Hcfpk7f_1_" class="st2" d="M83.3,133.3c-6.8,4.1-19.4,5-24.4,3.6c-27.8-8.1-19.1-28.7-11.4-42.8
						c6.8-12.6,27-29.3,18.2-34.3c5.6,2,14.2,6.4,11.3,14.3c-4.2,11.6-17.9,13.6-23.7,24.7s-4.2,23.8,16.4,20.8
						c20.6-2.9,28.3-7.3,32.5,3.3c4.2,10.6,17.7,37.5,17.7,37.5c-1.2,1.3-10.9,11.5-12.1,12.8c0,0-11.7-25.2-13.3-37.3
						C93.3,126.2,89.6,129.5,83.3,133.3z"/>
				</g>
			</g>
		</g>
		<g>
			<g>
				<path id="b9MnDUwb8" class="st4" d="M139.6,36.8C139.6,36.8,139.6,36.8,139.6,36.8c-2.7-1.5-5.9-3.4-9.4-4.8
					c-0.8-0.3-1.3-1.2-1.3-2c0.3-3.4,0.5-9-0.2-14.8c6.5,0.3,13.6,1.8,20.9,4.2c-1.9,5.9-5.1,12.5-7.2,16.6
					C141.9,37,140.6,37.4,139.6,36.8z"/>
			</g>
			<g>
				<g>
					<path id="b9MnDUwb8_1_" class="st2" d="M139.6,36.8C139.6,36.8,139.6,36.8,139.6,36.8c-2.7-1.5-5.9-3.4-9.4-4.8
						c-0.8-0.3-1.3-1.2-1.3-2c0.3-3.4,0.5-9-0.2-14.8c6.5,0.3,13.6,1.8,20.9,4.2c-1.9,5.9-5.1,12.5-7.2,16.6
						C141.9,37,140.6,37.4,139.6,36.8z"/>
				</g>
			</g>
		</g>
		<g>
			<g>
				<path id="g1rLc071UK" class="st4" d="M122.8,15.2c0.6,3.8,1,8,1,11.8c0,1.5-1.3,2.8-2.9,2.7c-6.9-0.4-14,2.7-19.4,13.9
					c-7.6,15.9,3.3,28.7,10.7,32.3c5,2.4,14.8,6.5,27.6-3.9c11.4-9.1,12.1-21.5,6-29.6c-0.8-1.1-0.9-2.5-0.2-3.7
					c2-3.4,4.6-8.1,6.5-11.8c0.7-1.3,2.5-1.4,3.3-0.2c9.6,14.6,8.4,32.1-3.6,44.6c-12.7,13.2-33.2,16.4-49.1,6.2
					c0,0-15.1-13.6-8.2-38.4C99.1,23.5,109.3,16.3,122.8,15.2z"/>
			</g>
			<g>
				<g>
					<path id="g1rLc071UK_1_" class="st2" d="M122.8,15.2c0.6,3.8,1,8,1,11.8c0,1.5-1.3,2.8-2.9,2.7c-6.9-0.4-14,2.7-19.4,13.9
						c-7.6,15.9,3.3,28.7,10.7,32.3c5,2.4,14.8,6.5,27.6-3.9c11.4-9.1,12.1-21.5,6-29.6c-0.8-1.1-0.9-2.5-0.2-3.7
						c2-3.4,4.6-8.1,6.5-11.8c0.7-1.3,2.5-1.4,3.3-0.2c9.6,14.6,8.4,32.1-3.6,44.6c-12.7,13.2-33.2,16.4-49.1,6.2
						c0,0-15.1-13.6-8.2-38.4C99.1,23.5,109.3,16.3,122.8,15.2z"/>
				</g>
			</g>
		</g>
		<g>
			<g>
				<path id="c15Bv41MJY" class="st1" d="M128.7,15.1c-0.3-2.3-0.8-4.7-1.5-7c-0.3-1.1,0.5-2.2,1.6-2.2c11.5-0.4,19.8,5.9,20.8,13.4
					C142.3,16.9,135.2,15.4,128.7,15.1z"/>
			</g>
			<g>
				<g>
					<path id="c15Bv41MJY_1_" class="st2" d="M128.7,15.1c-0.3-2.3-0.8-4.7-1.5-7c-0.3-1.1,0.5-2.2,1.6-2.2
						c11.5-0.4,19.8,5.9,20.8,13.4C142.3,16.9,135.2,15.4,128.7,15.1z"/>
				</g>
			</g>
		</g>
		<g>
			<g>
				<path id="d2F9GoTtat" class="st1" d="M118.3,5.2c1.6,0,2.9,1.1,3.2,2.6c0.4,2,0.9,4.6,1.3,7.4c-13.4,1.1-23.7,8.3-28,23.8
					c-6.9,24.8,8.2,38.4,8.2,38.4c-2.1-1.4-4.1-3-6.1-4.8C80.6,57,81.1,29.8,95.4,14.9C101.8,8.3,109.9,5.2,118.3,5.2z"/>
			</g>
			<g>
				<g>
					<path id="d2F9GoTtat_1_" class="st2" d="M118.3,5.2c1.6,0,2.9,1.1,3.2,2.6c0.4,2,0.9,4.6,1.3,7.4c-13.4,1.1-23.7,8.3-28,23.8
						c-6.9,24.8,8.2,38.4,8.2,38.4c-2.1-1.4-4.1-3-6.1-4.8C80.6,57,81.1,29.8,95.4,14.9C101.8,8.3,109.9,5.2,118.3,5.2z"/>
				</g>
			</g>
		</g>
		<g>
			<g>
				<path id="b2eQGSljz" class="st1" d="M146.8,133.8c34.5-16.2,50.6-10.5,58.5-0.8c-9.2-6.7-25.1-8.2-53.9,6.2
					c-53.5,26.8-61.6,83.3-61.6,83.3c-1,3.6-1.9,9.6-1.5,15.5c-0.3-0.5-0.6-1-0.8-1.5c-0.1-0.1-0.1-0.3-0.2-0.5c0,0,0,0,0,0
					c-4.2-7.3-2.9-18.7-1.3-24.3C98.1,196.1,93.7,158.6,146.8,133.8z M86.9,229.1c-0.1,0.3-0.1,0.5-0.1,0.5c-0.1,0.2-0.1,0.4,0,0.8
					C86.8,230,86.8,229.5,86.9,229.1z"/>
			</g>
			<g>
				<g>
					<path id="b2eQGSljz_1_" class="st2" d="M146.8,133.8c34.5-16.2,50.6-10.5,58.5-0.8c-9.2-6.7-25.1-8.2-53.9,6.2
						c-53.5,26.8-61.6,83.3-61.6,83.3c-1,3.6-1.9,9.6-1.5,15.5c-0.3-0.5-0.6-1-0.8-1.5c-0.1-0.1-0.1-0.3-0.2-0.5c0,0,0,0,0,0
						c-4.2-7.3-2.9-18.7-1.3-24.3C98.1,196.1,93.7,158.6,146.8,133.8z M86.9,229.1c-0.1,0.3-0.1,0.5-0.1,0.5c-0.1,0.2-0.1,0.4,0,0.8
						C86.8,230,86.8,229.5,86.9,229.1z"/>
				</g>
			</g>
		</g>
		<g>
			<g>
				<path id="cocSkMcGk" class="st4" d="M90.5,242.3c0-0.4,0-0.7,0-0.8c0,0,0-0.2,0.1-0.5C90.6,241.4,90.6,241.9,90.5,242.3z"/>
			</g>
			<g>
				<g>
					<path id="cocSkMcGk_1_" class="st2" d="M90.5,242.3c0-0.4,0-0.7,0-0.8c0,0,0-0.2,0.1-0.5C90.6,241.4,90.6,241.9,90.5,242.3z"/>
				</g>
			</g>
		</g>
		<g>
			<g>
				<path id="a6GRhd4AkK" class="st4" d="M88.4,237.8c-0.4-5.9,0.5-11.8,1.5-15.5c0,0,8.1-56.4,61.6-83.3
					c28.7-14.4,44.7-12.9,53.8-6.2c0.4,0.4,0.7,0.9,1,1.4c-30.2,55.8-92.8,94.2-115.5,106.7C89.9,240,89.1,238.9,88.4,237.8z"/>
			</g>
			<g>
				<g>
					<path id="a6GRhd4AkK_1_" class="st2" d="M88.4,237.8c-0.4-5.9,0.5-11.8,1.5-15.5c0,0,8.1-56.4,61.6-83.3
						c28.7-14.4,44.7-12.9,53.8-6.2c0.4,0.4,0.7,0.9,1,1.4c-30.2,55.8-92.8,94.2-115.5,106.7C89.9,240,89.1,238.9,88.4,237.8z"/>
				</g>
			</g>
		</g>
		<g>
			<g>
				<path id="a1qIIpqkmK" class="st6" d="M90.8,241c22.7-12.5,85.3-50.9,115.5-106.7c3.6,4.9,5.3,10.7,6.4,15.1
					c2.8,11,1.4,60.8-63.6,89.1C115.4,253.1,98.8,249.6,90.8,241z"/>
			</g>
			<g>
				<g>
					<path id="a1qIIpqkmK_1_" class="st2" d="M90.8,241c22.7-12.5,85.3-50.9,115.5-106.7c3.6,4.9,5.3,10.7,6.4,15.1
						c2.8,11,1.4,60.8-63.6,89.1C115.4,253.1,98.8,249.6,90.8,241z"/>
				</g>
			</g>
		</g>
		<g>
			<g>
				<path id="bKdFtjQC9" class="st3" d="M7.2,317.7c-2.5-2.9-1.6-7.7,2-10.9c3.6-3.1,8.5-3.4,11-0.5c2.5,2.9,1.6,7.7-2,10.9
					C14.6,320.3,9.7,320.5,7.2,317.7z"/>
			</g>
			<g>
				<g>
					<path id="bKdFtjQC9_1_" class="st2" d="M7.2,317.7c-2.5-2.9-1.6-7.7,2-10.9c3.6-3.1,8.5-3.4,11-0.5c2.5,2.9,1.6,7.7-2,10.9
						C14.6,320.3,9.7,320.5,7.2,317.7z"/>
				</g>
			</g>
		</g>
	</g>
</g>
</svg>
